<svg width="95" height="132" viewBox="0 0 95 132" fill="none" xmlns="http://www.w3.org/2000/svg">
<path d="M60.807 58.3267C67.188 53.049 70.0154 21.859 72.7777 10.6476C75.5399 -0.56381 86.9638 0.00482299 86.9638 0.00482299C86.9638 0.00482299 83.998 5.16621 85.2077 9.01787C86.4174 12.8695 94.7044 16.3125 94.7044 16.3125L92.9171 21.0245C92.9171 21.0245 89.1848 20.5471 86.9638 24.9897C84.7428 29.4323 88.3914 73.4214 88.3914 73.4214C88.3914 73.4214 75.0429 99.7501 75.0429 110.866C75.0429 121.982 80.3044 131.299 80.3044 131.299H72.9211C72.9211 131.299 62.0897 118.409 59.8684 111.967C57.6471 105.525 58.5353 99.0837 58.5353 99.0837C58.5353 99.0837 46.762 98.4173 36.3222 99.0837C25.8823 99.7501 18.92 108.724 17.6635 113.744C16.4069 118.764 15.8864 131.299 15.8864 131.299H10.0484C6.49513 120.333 3.67303 116.403 5.20401 110.866C9.44464 95.5296 8.61166 86.831 7.6298 82.9567C6.64794 79.0824 0 75.7009 0 75.7009C3.25652 69.0664 6.58061 65.8783 20.8792 65.5458C35.1778 65.2132 54.4259 63.6044 60.807 58.3267Z" fill="#EC4815"/>
<path d="M23.6787 110.224C23.6787 110.224 25.1873 124.185 33.2018 131.299H40.0701C33.2018 123.519 32.4529 103.238 32.4529 103.238C28.9594 104.375 24.123 108.447 23.6787 110.224Z" fill="#EC4815"/>
</svg>
